<svg xmlns="http://www.w3.org/2000/svg" viewBox="0 0 507 578">
  <path fill="#FFF" d="M0 0h507v578H0z"/>
  <path d="M455 239.2L299.2 238l-5.4 19L257 367.6c-1 3.6-2.5 4.5-6 4.5h-95l-18.6 76c-14.2-1-21.2-8-18.3-21 4-16 7-32 11-48l21-91 12-49c2-10 5-21 6-32 2-14-4-24-14-33-1-1-2-3-2-4 0-2 2-5 2-8l6-39 6-35c2-10 6-21-1-30 3-3 5-6 6-9 3-7-7-24-16-27-6-2-11 2-16 4-7 4-9 8-8 16 1 3 2 6 3 7-2 3-6 6-7 9l-6 41c-3 20-7 41-10 61-14 2-23.2 10-27 23-3 13-4.3 26-6.2 39-2 13-3 26-5 39l-7 40-4 32-5 32.7c-1.6 10-3 20.5-4 30.8-2 14.6-3.5 28.8-5 43-1 8 3 12 9.3 17 10.7 7 23 10 35.6 10h136l-28 84-4-1c-10-2.4-13-8.3-10-18l12-37c2-7 4-13.5 7-21h-69c-1 0-3 2-3.6 3.3-5 19.2-10.8 39-15 59-1 5.2-1 11 4 15.2 8.3 8 19 11.2 30 11.4 35 .7 70 .3 105 0 1 0 3-1.6 4-3 5-12 10-24 14-36 1.5-5 4-6 8.4-6h77c2 0 4 .7 5.3-2.4 8.7-19 17.8-38 26.7-56.8l14.6-32h-92c0-.6 0-1 .4-1.5l27.5-70c12-31 24-62 37-92.7 1-2 2-3.3 5-2l7 3.5c3.2 1 7.3 7 6 11-5.7 13-10 27-16 40-12 29-24.8 58-37 87-2.4 5-4.4 10.7-6.7 16h71c1.6 0 3.6-1 4-2.2 3-5.5 5.6-11.4 8-17l39-80.7c7-14.7 13.4-29.8 20-44.7 6-13-8-33-24.7-33zm-302.3-218c1.4 1.8 2.6 3 3.5 4.3 3 4.4 6 9 9.2 13.3 3.5 5 3.5 6.7-.6 11l-3.5 4c0-2 0-2.8-.2-3.7h-6l8 23c-7 4-15 4-22 0h13s0-1 1-1c-6-1-12-1-16-7l8-6v6c4-3 7-11 4-14h12l-7-22h-2l-4 17c-4 0-5-3-3-7l8-16zm-7.3 84.8L132 193.5h-1.2c-.3-1.4-1-3-.8-4.5 4.2-25.6 8.6-51.2 13-76.8l1.2-6.2h1.2zm-13-68.5c-2.3-6.6 4-12 15-14.4l-15 15zm3.8 11c.3 0 1 .7 1 1 0 1 0 2-.7 2.4l-9.5 6c.8-4 6.2-10 9.2-10zm-7 30.8l2.4 1.6-16.4 95H114l15-97zm-7 113.5c.4-7.6 3.4-14.3.2-22-1.5-3.5 1-8.8 1.7-13.3l6-35.3 6-38.7 5 2-8 51-6 43.2v13.6c0 4.2 4 5 7 4.5 4-.4 8-.5 8-5.5 0-2 1-4 0-6.3l-3 4.5-1-.3 15-101.7 10-2c0 5.4-1 11-2 16.6-1 11-3 21-5 31-2 14-3 27-6 40l-2 4c-1 5-3 9-3 14 4 1 6-1 7-5v-2c0-3 1-7 2-11 7 8 6.8 14-1 21l-1 1v1c-1 2-.2 2 2 3-3.5 4-7 5-10.5 6h-1c-4 0-9 0-14-2l-5-1 13 1c0-.4 0-1 .4-1.3-9-2-18.5-2-24-12l12.7 5zm-15.7-26.4v13c-4.7-4.8-4.8-8.5 0-13zm-17.3 34c18.4 13 37.6 23.4 61.2 15.7-17.8 12-49.8 1-61.2-15zm238 240.4c-8 20.6-16 40.6-24.8 62.3 0 0-5 1-9 0-9.4-4-6-12-5.4-14 4.8-13 10-26 15.3-39h-93.8c2.4-8 4.4-16 6.6-23 4-11 7-22 10-33 1-2 2-4 5-3 6 1 11 3 14 7 2 2 2 6 1 8-3 12-7 25-12 37h95z"/>
</svg>
